<?xml version="1.0" encoding="iso-8859-1"?>
<!-- Generator: Adobe Illustrator 19.0.0, SVG Export Plug-In . SVG Version: 6.00 Build 0)  -->
<svg version="1.1" id="Capa_1" xmlns="http://www.w3.org/2000/svg" xmlns:xlink="http://www.w3.org/1999/xlink" x="0px" y="0px"
	 viewBox="0 0 512 512" style="enable-background:new 0 0 512 512;" xml:space="preserve">
<g>
	<g>
		<path d="M511.985,220.767c-0.011-0.173-0.031-0.344-0.051-0.517c-0.02-0.173-0.022-0.345-0.051-0.518
			c-0.029-0.174-0.073-0.332-0.108-0.498c-0.013-0.061-0.025-0.122-0.04-0.183c-0.557-2.405-1.796-4.096-3.322-5.341
			c-0.099-0.082-0.199-0.162-0.301-0.241c-0.09-0.069-0.181-0.136-0.273-0.202c-0.105-0.075-0.21-0.148-0.318-0.218
			c-1.766-1.188-3.77-1.918-5.486-2.536c-0.001,0-0.001,0-0.002-0.001c-20.666-7.442-42.166-30.158-62.959-52.127
			c-29.426-31.091-59.854-63.239-95.838-63.239c-42.122,0-74.74,15.415-87.236,22.32c-12.496-6.905-45.114-22.32-87.236-22.32
			c-35.984,0-66.411,32.149-95.838,63.239c-20.794,21.969-42.293,44.686-62.961,52.128c-1.713,0.617-3.713,1.345-5.477,2.529
			c-0.113,0.074-0.225,0.151-0.335,0.23c-0.087,0.063-0.173,0.127-0.258,0.192c-0.106,0.081-0.21,0.164-0.312,0.25
			c-1.523,1.244-2.76,2.935-3.317,5.336c-0.015,0.061-0.026,0.122-0.04,0.183c-0.036,0.167-0.08,0.325-0.109,0.498
			c-0.029,0.173-0.031,0.345-0.051,0.518c-0.02,0.172-0.04,0.344-0.051,0.517c-0.018,0.297-0.017,0.592-0.009,0.887
			c0.005,0.174,0.005,0.347,0.018,0.521c0.023,0.294,0.069,0.584,0.118,0.874c0.029,0.171,0.049,0.343,0.087,0.513
			c0.068,0.305,0.162,0.602,0.258,0.898c0.048,0.147,0.082,0.296,0.136,0.441c0.162,0.43,0.351,0.85,0.57,1.255
			c0.053,0.098,0.123,0.189,0.18,0.286c0.182,0.31,0.372,0.615,0.587,0.905c0.023,0.03,0.038,0.064,0.061,0.094
			c0.919,1.208,1.965,2.423,3.112,3.611c10.967,11.357,20.306,27.667,31.121,46.555c32.518,56.792,77.052,134.571,213.205,139.242
			c0.114,0.004,0.229,0.006,0.343,0.006h12.397c0.114,0,0.229-0.002,0.343-0.006c136.153-4.671,180.688-82.451,213.205-139.242
			c10.814-18.886,20.154-35.198,31.121-46.555c1.147-1.188,2.194-2.403,3.112-3.611c0.023-0.03,0.039-0.064,0.061-0.094
			c0.215-0.29,0.405-0.595,0.587-0.905c0.057-0.096,0.126-0.186,0.18-0.285c0.219-0.405,0.409-0.825,0.57-1.255
			c0.054-0.145,0.088-0.294,0.136-0.441c0.096-0.297,0.19-0.593,0.258-0.898c0.038-0.17,0.058-0.342,0.087-0.513
			c0.049-0.29,0.095-0.58,0.118-0.874c0.014-0.174,0.014-0.347,0.018-0.521C512.003,221.359,512.003,221.065,511.985,220.767z
			 M87.453,172.133c26.517-28.016,53.936-56.987,81.312-56.987c46.922,0,81.426,22.075,81.753,22.287
			c3.33,2.183,7.638,2.183,10.968,0c0.34-0.223,34.537-22.287,81.753-22.287c27.375,0,54.794,28.97,81.312,56.987
			c14.817,15.655,29.967,31.664,45.805,43.327l-106.86,14.029c-0.191-0.123-0.402-0.257-0.608-0.387
			c-0.098-0.063-0.188-0.12-0.29-0.184c-0.371-0.235-0.763-0.481-1.177-0.739c-0.095-0.059-0.199-0.123-0.297-0.184
			c-0.322-0.2-0.651-0.403-0.996-0.614c-0.168-0.103-0.343-0.209-0.517-0.315c-0.301-0.183-0.607-0.368-0.923-0.558
			c-0.189-0.114-0.381-0.228-0.576-0.344c-0.325-0.194-0.658-0.391-0.998-0.591c-0.201-0.118-0.399-0.235-0.605-0.355
			c-0.38-0.222-0.772-0.448-1.168-0.677c-0.177-0.102-0.348-0.201-0.528-0.304c-0.572-0.327-1.159-0.66-1.763-0.997
			c-0.142-0.08-0.292-0.161-0.436-0.241c-0.471-0.262-0.947-0.525-1.435-0.791c-0.231-0.126-0.466-0.253-0.701-0.379
			c-0.423-0.229-0.849-0.458-1.284-0.688c-0.255-0.135-0.512-0.271-0.771-0.407c-0.432-0.227-0.869-0.454-1.311-0.682
			c-0.264-0.136-0.527-0.272-0.795-0.409c-0.491-0.251-0.99-0.501-1.492-0.752c-0.22-0.11-0.435-0.219-0.657-0.329
			c-0.724-0.358-1.458-0.715-2.203-1.071c-0.138-0.066-0.279-0.13-0.417-0.196c-0.612-0.29-1.229-0.58-1.854-0.867
			c-0.264-0.122-0.532-0.241-0.798-0.362c-0.51-0.232-1.023-0.462-1.54-0.69c-0.298-0.131-0.597-0.261-0.897-0.392
			c-0.506-0.219-1.014-0.436-1.526-0.651c-0.298-0.126-0.596-0.251-0.897-0.376c-0.561-0.232-1.127-0.46-1.694-0.686
			c-0.25-0.099-0.497-0.201-0.748-0.299c-0.815-0.319-1.634-0.633-2.458-0.938c-0.116-0.043-0.234-0.083-0.35-0.126
			c-0.711-0.26-1.424-0.515-2.141-0.763c-0.279-0.097-0.56-0.189-0.84-0.283c-0.56-0.189-1.12-0.374-1.682-0.555
			c-0.317-0.101-0.634-0.2-0.952-0.299c-0.541-0.168-1.082-0.33-1.624-0.489c-0.315-0.092-0.63-0.185-0.946-0.274
			c-0.583-0.165-1.166-0.32-1.749-0.473c-0.267-0.07-0.535-0.144-0.802-0.211c-0.847-0.214-1.694-0.417-2.54-0.603
			c-0.063-0.014-0.125-0.025-0.188-0.039c-0.782-0.17-1.562-0.328-2.341-0.473c-0.275-0.051-0.549-0.095-0.823-0.143
			c-0.57-0.1-1.14-0.194-1.708-0.279c-0.313-0.047-0.625-0.089-0.937-0.131c-0.538-0.072-1.075-0.138-1.61-0.196
			c-0.31-0.034-0.62-0.067-0.929-0.096c-0.565-0.053-1.127-0.093-1.687-0.129c-0.266-0.017-0.533-0.038-0.798-0.051
			c-0.819-0.04-1.634-0.065-2.441-0.065c-4.827,0-10.309,0.836-16.29,2.486c-4.902,1.352-9.841,2.37-14.78,3.057
			c-14.817,2.06-29.645,1.127-43.564-2.802c-4.024-1.136-7.828-1.923-11.37-2.353c-0.22-0.027-0.433-0.043-0.651-0.067
			c-0.774-0.085-1.535-0.152-2.283-0.202c-1.075-0.072-2.131-0.119-3.15-0.119c-0.807,0-1.622,0.025-2.441,0.065
			c-0.265,0.013-0.532,0.034-0.798,0.051c-0.561,0.036-1.122,0.076-1.687,0.129c-0.309,0.029-0.619,0.062-0.929,0.096
			c-0.535,0.058-1.072,0.123-1.61,0.196c-0.312,0.042-0.624,0.084-0.937,0.131c-0.568,0.085-1.138,0.18-1.708,0.279
			c-0.275,0.048-0.548,0.092-0.823,0.143c-0.779,0.145-1.559,0.302-2.341,0.473c-0.063,0.014-0.125,0.025-0.188,0.039
			c-0.846,0.186-1.693,0.389-2.54,0.603c-0.268,0.067-0.535,0.141-0.802,0.211c-0.583,0.153-1.166,0.309-1.749,0.473
			c-0.316,0.089-0.631,0.182-0.946,0.274c-0.542,0.159-1.083,0.321-1.624,0.489c-0.318,0.099-0.635,0.197-0.952,0.299
			c-0.562,0.18-1.122,0.366-1.682,0.555c-0.28,0.095-0.561,0.187-0.84,0.283c-0.717,0.248-1.43,0.503-2.141,0.763
			c-0.116,0.043-0.234,0.083-0.35,0.126c-0.825,0.305-1.644,0.619-2.458,0.938c-0.251,0.098-0.498,0.2-0.748,0.299
			c-0.567,0.226-1.133,0.454-1.694,0.686c-0.301,0.124-0.598,0.25-0.897,0.376c-0.511,0.215-1.02,0.432-1.525,0.651
			c-0.3,0.13-0.599,0.26-0.897,0.392c-0.518,0.228-1.03,0.458-1.54,0.69c-0.266,0.121-0.534,0.241-0.798,0.362
			c-0.625,0.287-1.242,0.576-1.854,0.867c-0.138,0.065-0.279,0.13-0.417,0.196c-0.745,0.356-1.479,0.713-2.203,1.071
			c-0.222,0.11-0.437,0.219-0.657,0.329c-0.502,0.251-1.001,0.501-1.492,0.752c-0.268,0.137-0.531,0.273-0.795,0.409
			c-0.442,0.228-0.879,0.455-1.311,0.682c-0.259,0.136-0.516,0.271-0.771,0.407c-0.435,0.231-0.861,0.46-1.284,0.688
			c-0.234,0.126-0.47,0.253-0.701,0.379c-0.488,0.266-0.965,0.529-1.435,0.791c-0.144,0.08-0.293,0.161-0.436,0.241
			c-0.603,0.337-1.19,0.67-1.763,0.997c-0.18,0.103-0.351,0.202-0.528,0.304c-0.396,0.228-0.789,0.455-1.168,0.677
			c-0.206,0.12-0.404,0.237-0.605,0.355c-0.34,0.2-0.673,0.397-0.998,0.591c-0.195,0.116-0.386,0.231-0.576,0.344
			c-0.316,0.19-0.622,0.375-0.923,0.558c-0.174,0.106-0.349,0.212-0.517,0.315c-0.345,0.211-0.674,0.414-0.996,0.614
			c-0.098,0.06-0.202,0.124-0.297,0.184c-0.414,0.258-0.806,0.504-1.177,0.739c-0.102,0.064-0.191,0.122-0.29,0.184
			c-0.206,0.131-0.417,0.265-0.608,0.387L41.649,215.461C57.486,203.797,72.636,187.788,87.453,172.133z M342.986,240.52
			c-0.012,0.01-0.025,0.021-0.037,0.032c-0.628,0.525-1.262,1.065-1.901,1.612c-0.123,0.106-0.247,0.212-0.371,0.318
			c-1.326,1.139-2.678,2.322-4.06,3.539c-0.117,0.103-0.235,0.207-0.352,0.31c-0.671,0.592-1.347,1.189-2.033,1.795
			c-5.244,4.635-11.189,9.889-17.644,14.892c-35.674,27.648-85.499,27.647-121.169-0.001c-6.456-5.003-12.4-10.258-17.645-14.893
			c-0.031-0.028-0.062-0.054-0.093-0.082c-0.64-0.566-1.271-1.123-1.899-1.676c-0.138-0.122-0.278-0.245-0.416-0.367
			c-1.364-1.202-2.7-2.369-4.009-3.495c-0.143-0.123-0.285-0.245-0.428-0.367c-0.595-0.509-1.186-1.011-1.772-1.502
			c-0.046-0.038-0.093-0.079-0.138-0.117c8.947-4.968,20.492-10.43,30.928-12.864c0.047-0.011,0.094-0.022,0.142-0.033
			c0.844-0.195,1.682-0.371,2.509-0.524c0.003-0.001,0.005-0.001,0.007-0.001c0.811-0.15,1.611-0.275,2.402-0.382
			c0.133-0.018,0.263-0.031,0.395-0.047c0.621-0.078,1.234-0.139,1.84-0.187c0.193-0.015,0.386-0.031,0.577-0.044
			c0.724-0.046,1.44-0.078,2.139-0.078c2.766,0,6.058,0.476,9.797,1.403c0.725,0.18,1.461,0.371,2.22,0.585h0.001
			c1.895,0.535,3.807,1.006,5.727,1.448c5.069,1.167,10.217,2.027,15.42,2.546c0.201,0.02,0.404,0.031,0.605,0.05
			c1.234,0.117,2.47,0.225,3.71,0.305c0.532,0.035,1.066,0.049,1.598,0.077c2.356,0.124,4.719,0.199,7.09,0.191
			c11.624-0.037,23.38-1.651,34.945-4.839c4.251-1.172,7.943-1.766,10.974-1.766c0.695,0,1.406,0.031,2.126,0.077
			c0.203,0.013,0.409,0.03,0.614,0.047c0.568,0.046,1.143,0.104,1.724,0.176c0.178,0.022,0.354,0.04,0.534,0.064
			c0.74,0.1,1.489,0.219,2.246,0.357c0.155,0.028,0.312,0.062,0.467,0.092c0.624,0.12,1.253,0.251,1.887,0.394
			c0.225,0.051,0.45,0.102,0.675,0.156c0.682,0.162,1.368,0.335,2.058,0.522c0.104,0.028,0.206,0.053,0.31,0.081
			c0.791,0.218,1.587,0.453,2.385,0.7c0.211,0.065,0.423,0.134,0.635,0.201c0.626,0.199,1.253,0.405,1.881,0.619
			c0.21,0.072,0.42,0.142,0.631,0.215c0.803,0.28,1.607,0.569,2.41,0.871c0.091,0.034,0.181,0.07,0.272,0.105
			c0.722,0.274,1.443,0.556,2.162,0.846c0.226,0.091,0.451,0.182,0.677,0.275c0.657,0.269,1.311,0.542,1.964,0.821
			c0.155,0.066,0.31,0.131,0.465,0.198c0.791,0.342,1.578,0.691,2.359,1.046c0.184,0.083,0.366,0.169,0.55,0.253
			c0.622,0.285,1.24,0.573,1.853,0.865c0.21,0.1,0.421,0.199,0.63,0.299c1.537,0.738,3.042,1.489,4.504,2.244
			c0.199,0.103,0.396,0.206,0.593,0.309c0.571,0.298,1.135,0.596,1.691,0.893c0.168,0.09,0.339,0.18,0.506,0.27
			c0.692,0.373,1.372,0.744,2.037,1.113C342.925,240.485,342.955,240.503,342.986,240.52z M458.389,267.67
			c-31.849,55.623-71.474,124.842-196.365,129.185h-12.048C125.086,392.512,85.46,323.292,53.612,267.67
			c-6.716-11.731-13.207-23.066-20.134-33.108l114.237,14.997c0.052,0.031,0.103,0.061,0.155,0.092
			c0.488,0.295,0.989,0.615,1.505,0.962c0.092,0.062,0.185,0.127,0.278,0.19c0.531,0.363,1.072,0.746,1.63,1.159
			c0.068,0.05,0.139,0.105,0.207,0.156c0.563,0.419,1.137,0.859,1.726,1.323c0.041,0.033,0.081,0.063,0.122,0.095
			c0.602,0.476,1.221,0.978,1.849,1.495c0.101,0.083,0.2,0.164,0.301,0.248c0.605,0.501,1.223,1.021,1.85,1.555
			c0.131,0.111,0.262,0.223,0.394,0.335c0.614,0.525,1.238,1.064,1.873,1.615c0.162,0.141,0.325,0.283,0.488,0.425
			c0.619,0.54,1.245,1.088,1.882,1.649c0.247,0.218,0.498,0.439,0.748,0.66c0.401,0.354,0.806,0.711,1.214,1.071
			c0.197,0.174,0.392,0.346,0.59,0.522c4.787,4.23,10.134,8.956,16.061,13.688c0.847,0.676,1.705,1.352,2.576,2.027
			c21.443,16.62,47.14,24.931,72.837,24.931c25.697,0,51.393-8.311,72.836-24.931c0.87-0.675,1.729-1.351,2.576-2.027
			c5.927-4.731,11.273-9.457,16.06-13.687c0.188-0.166,0.372-0.329,0.559-0.493c0.441-0.389,0.878-0.775,1.31-1.157
			c0.222-0.196,0.444-0.392,0.664-0.585c0.655-0.577,1.299-1.141,1.935-1.696c0.145-0.126,0.289-0.252,0.433-0.377
			c0.647-0.562,1.282-1.111,1.908-1.645c0.124-0.106,0.247-0.211,0.37-0.316c0.633-0.539,1.256-1.063,1.865-1.568
			c0.097-0.08,0.191-0.157,0.287-0.236c0.633-0.521,1.256-1.027,1.862-1.506c0.036-0.029,0.071-0.055,0.107-0.083
			c0.593-0.467,1.171-0.91,1.738-1.332c0.068-0.051,0.138-0.104,0.205-0.154c0.558-0.412,1.099-0.796,1.63-1.159
			c0.093-0.063,0.186-0.128,0.278-0.19c0.516-0.347,1.017-0.667,1.505-0.962c0.052-0.031,0.103-0.061,0.154-0.092l114.237-14.997
			C471.596,244.604,465.106,255.939,458.389,267.67z"/>
	</g>
</g>
<g>
	<g>
		<path d="M402.545,300.303c-4.18-3.61-10.496-3.149-14.105,1.031c-30.232,35.003-71.823,53.016-127.138,55.067h-10.784
			c-5.523,0-10.001,4.477-10.001,10.001s4.477,10.001,10.001,10.001h10.968c0.121,0,0.243-0.003,0.364-0.007
			c61.268-2.231,107.628-22.508,141.727-61.987C407.186,310.229,406.724,303.914,402.545,300.303z"/>
	</g>
</g>
<g>
	<g>
		<path d="M426.214,275.712c-0.13-0.629-0.32-1.26-0.57-1.87c-0.25-0.6-0.56-1.18-0.92-1.72c-0.36-0.55-0.78-1.06-1.24-1.52
			c-0.46-0.461-0.97-0.88-1.52-1.25c-0.54-0.36-1.12-0.67-1.73-0.92c-0.6-0.25-1.23-0.44-1.87-0.57c-1.29-0.26-2.62-0.26-3.91,0
			c-0.64,0.13-1.26,0.32-1.87,0.57c-0.6,0.25-1.18,0.56-1.72,0.92c-0.55,0.37-1.06,0.789-1.52,1.25c-1.87,1.86-2.93,4.44-2.93,7.071
			c0,2.63,1.06,5.21,2.93,7.071c0.46,0.46,0.97,0.88,1.52,1.24c0.54,0.36,1.12,0.67,1.72,0.92c0.61,0.25,1.23,0.44,1.87,0.57
			c0.65,0.13,1.3,0.2,1.96,0.2c0.65,0,1.31-0.07,1.95-0.2c0.64-0.13,1.27-0.32,1.87-0.57c0.6-0.25,1.19-0.56,1.73-0.92
			c0.55-0.36,1.06-0.78,1.52-1.24c1.86-1.86,2.93-4.44,2.93-7.071C426.414,277.022,426.344,276.362,426.214,275.712z"/>
	</g>
</g>
<g>
</g>
<g>
</g>
<g>
</g>
<g>
</g>
<g>
</g>
<g>
</g>
<g>
</g>
<g>
</g>
<g>
</g>
<g>
</g>
<g>
</g>
<g>
</g>
<g>
</g>
<g>
</g>
<g>
</g>
</svg>
