<svg id="Layer_1" data-name="Layer 1" xmlns="http://www.w3.org/2000/svg" viewBox="0 0 471.89 215.46"><defs><style>.cls-1{fill:#308a56;}.cls-2{fill:#259955;}.cls-2,.cls-3,.cls-4,.cls-5,.cls-7{fill-rule:evenodd;}.cls-3,.cls-6{fill:#d9d9d9;}.cls-5{fill:#fff;}.cls-7{fill:#4cc47e;}</style></defs><title>logo</title><path class="cls-1" d="M455.81,281.47c6.52,0,11.35,1.36,11.35,9.14s-4.83,9.14-11.35,9.14h-12.1V281.47Zm-21.54-9.38a3.06,3.06,0,0,0-3.06,3.13V316.6a3.16,3.16,0,0,0,3.13,3.13h6.25a3.12,3.12,0,0,0,3.13-3.13v-7.47h15.9c12.64,0,20-5.71,20-18.52s-7.41-18.52-20-18.52Zm65.65,40.77c-3.53,0-5.37-1.77-5.37-4.15s1.83-4,5-4h10.19v5.16a18.6,18.6,0,0,1-9.85,3ZM503,290.23c4.55,0,6.79,1.63,6.79,6.93h-11c-8.9,0-15.7,3.87-15.7,11.55s6.8,11.69,15.7,11.69a19.8,19.8,0,0,0,12-3.74v1a2,2,0,0,0,2,2h6.39a2,2,0,0,0,2-2V297.17c0-10.4-7.68-14.48-17.46-14.48-11,0-18.08,2.45-18.08,9.51a2,2,0,0,0,2,2h5a4.65,4.65,0,0,0,3.81-1.77c1.16-1.43,3.67-2.24,6.46-2.24Zm53.14,27.45a2,2,0,0,0,2,2h7.41a2,2,0,0,0,2-2v-19c0-11.28-6.25-16-15.09-16-5.1,0-8.5,2.18-11.62,4.83v-2.11a2,2,0,0,0-2-2h-7.41a2,2,0,0,0-2,2v32.28a2,2,0,0,0,2,2h7.41a2,2,0,0,0,2-2V295.47c2.45-2.45,5.57-4.76,8.9-4.76,3.74,0,6.32,2.31,6.32,8v19Zm37.1-5.3c-5.44,0-7.68-3.33-7.68-10.8s2.24-10.87,8.36-10.87a26.59,26.59,0,0,1,7.2,1.36V309.4c-2.38,1.49-5.44,3-7.88,3Zm-2.72,8a19.44,19.44,0,0,0,11.62-3.74v1a2,2,0,0,0,2,2h6.39a2,2,0,0,0,2-2V274.15a2,2,0,0,0-2-2.06h-7.41a2,2,0,0,0-2,2.06v10.24a28.82,28.82,0,0,0-9.58-1.7c-10.6,0-17.8,6.39-17.8,18.89s7.13,18.82,16.79,18.82Zm45.05-7.54c-3.53,0-5.37-1.77-5.37-4.15s1.83-4,5-4H645.4v5.16a18.6,18.6,0,0,1-9.85,3Zm3.06-22.63c4.55,0,6.79,1.63,6.79,6.93h-11c-8.9,0-15.7,3.87-15.7,11.55s6.8,11.69,15.7,11.69a19.8,19.8,0,0,0,12-3.74v1a2,2,0,0,0,2,2h6.39a2,2,0,0,0,2-2V297.17c0-10.4-7.68-14.48-17.46-14.48-11,0-18.08,2.45-18.08,9.51a2,2,0,0,0,2,2h5a4.65,4.65,0,0,0,3.81-1.77c1.16-1.43,3.67-2.24,6.46-2.24Z" transform="translate(-185 -195.88)"/><path class="cls-1" d="M465.84,376.59a5,5,0,0,0,4.31-3.17l12.36-34.52V373.2a3.32,3.32,0,0,0,3.31,3.39h6.32a3.32,3.32,0,0,0,3.31-3.39V329.61a3.31,3.31,0,0,0-3.23-3.39h-14.3a4.78,4.78,0,0,0-4.24,3.32l-10.35,30-10.35-30a4.78,4.78,0,0,0-4.24-3.32h-14.3a3.31,3.31,0,0,0-3.23,3.39V373.2a3.32,3.32,0,0,0,3.31,3.39h6.32a3.32,3.32,0,0,0,3.3-3.39V338.89l12.36,34.52a5,5,0,0,0,4.31,3.17Zm75.59-15.52a2.12,2.12,0,0,0,2.16-2.16v-2c0-12.65-7.69-19.47-20.48-19.47s-20.48,7-20.48,20,7.69,19.9,20.48,19.9c11.5,0,19.18-2.59,19.18-10.06a2.12,2.12,0,0,0-2.16-2.16h-5.25a4.92,4.92,0,0,0-4,1.87c-1.22,1.51-3.88,2.37-6.9,2.37-5.89,0-8.48-2.52-9-8.26ZM523.1,345.41c5.32,0,7.9,2.87,8.12,8.26H514.91c.29-5.39,3-8.26,8.19-8.26Zm45.41,23.42c-5.75,0-8.12-3.52-8.12-11.42s2.37-11.5,8.84-11.5a28.11,28.11,0,0,1,7.62,1.44v18.32c-2.51,1.58-5.75,3.16-8.33,3.16Zm-2.87,8.48a20.56,20.56,0,0,0,12.29-4v1.08a2.12,2.12,0,0,0,2.16,2.16h6.75a2.12,2.12,0,0,0,2.16-2.16v-46a2.13,2.13,0,0,0-2.16-2.18H579a2.13,2.13,0,0,0-2.16,2.18v10.82a30.47,30.47,0,0,0-10.13-1.8c-11.21,0-18.82,6.75-18.82,20s7.54,19.9,17.75,19.9Zm42.1-.72a2.12,2.12,0,0,0,2.16-2.16V341.17a2.12,2.12,0,0,0-2.16-2.15h-7.83a2.12,2.12,0,0,0-2.16,2.15v33.27a2.12,2.12,0,0,0,2.16,2.16Zm-10.13-45.77a3.7,3.7,0,0,0,4,4H606a3.7,3.7,0,0,0,4-4V329.6a3.7,3.7,0,0,0-4-4h-4.38a3.7,3.7,0,0,0-4,4v1.22Zm36.72,38.51c-3.74,0-5.68-1.87-5.68-4.38s1.94-4.24,5.32-4.24h10.78v5.46a19.66,19.66,0,0,1-10.42,3.16Zm3.23-23.93c4.81,0,7.18,1.72,7.18,7.33H633.11c-9.41,0-16.6,4.1-16.6,12.21s7.18,12.36,16.6,12.36a21,21,0,0,0,12.72-4v1.08a2.12,2.12,0,0,0,2.15,2.16h6.75a2.12,2.12,0,0,0,2.16-2.16v-21.7c0-11-8.12-15.3-18.47-15.3-11.64,0-19.11,2.59-19.11,10.06a2.12,2.12,0,0,0,2.16,2.16h5.25a4.92,4.92,0,0,0,4-1.87c1.22-1.51,3.88-2.37,6.83-2.37Z" transform="translate(-185 -195.88)"/><path d="M514,404.15a.47.47,0,0,0,.26.17h0a1.49,1.49,0,0,1,.77.53h0a1.46,1.46,0,0,1,.3.88,1.5,1.5,0,0,1,0,.18,1.45,1.45,0,0,1-.47.9h0a1.43,1.43,0,0,1-1,.36h-.18a5.36,5.36,0,0,1-1.12-.23h0a2.91,2.91,0,0,1-1-.57h0a2,2,0,0,1-.39-.48,3.6,3.6,0,0,1-1.1.82,5.43,5.43,0,0,1-2.4.5,4.58,4.58,0,0,1-3.27-1.14,4.25,4.25,0,0,1-1.2-3.17,3.9,3.9,0,0,1,1.48-3.34,7.67,7.67,0,0,1,4.54-1.15l1.5,0v-1a1.81,1.81,0,0,0-.61-1.54,2.73,2.73,0,0,0-1.65-.42,6.2,6.2,0,0,0-1.48.2,11.4,11.4,0,0,0-1.38.45,1.16,1.16,0,0,1-.52.08,1.36,1.36,0,0,1-1-.4A1.33,1.33,0,0,1,504,394a1.39,1.39,0,0,1,.66-.5h0a12.64,12.64,0,0,1,2-.47,13.8,13.8,0,0,1,2.1-.18,5.86,5.86,0,0,1,3.76,1.1h0a3.89,3.89,0,0,1,1.37,3.17v6.49a.9.9,0,0,0,.12.53Zm-4-.23a2.27,2.27,0,0,0,.67-1.75v-1.38l-1.22,0h0a4.89,4.89,0,0,0-2.24.42h0a1.59,1.59,0,0,0-.79,1.53,2.07,2.07,0,0,0,.45,1.38,1.47,1.47,0,0,0,1.13.51,3.15,3.15,0,0,0,2-.73Z" transform="translate(-185 -195.88)"/><path d="M442.53,396.09a3.89,3.89,0,0,1-1.12.95,4.67,4.67,0,0,1,1.87,1.35,5.29,5.29,0,0,1,1.14,3.43,4.66,4.66,0,0,1-1.73,3.86,7.61,7.61,0,0,1-4.77,1.31h-5a1.67,1.67,0,0,1-1.23-.44h0a1.67,1.67,0,0,1-.44-1.23v-15a1.68,1.68,0,0,1,.44-1.23h0a1.68,1.68,0,0,1,1.23-.44h4.83a6.48,6.48,0,0,1,4.2,1.2,4.4,4.4,0,0,1,1.53,3.55,4.15,4.15,0,0,1-.92,2.65Zm-5-4.57h-3.13v4.4h2.92a3.29,3.29,0,0,0,2.11-.59h0a2,2,0,0,0,.71-1.61,2.12,2.12,0,0,0-.56-1.66,3,3,0,0,0-2-.54Zm-3.13,12.62h2.92a4.79,4.79,0,0,0,2.71-.6h0a2.37,2.37,0,0,0,.9-2.1,2.61,2.61,0,0,0-.61-1.9h0a3.6,3.6,0,0,0-2.65-.77h-3.26v5.38Zm13.1-9.35a5.72,5.72,0,0,1,4.55-1.93,5.32,5.32,0,0,1,4.15,1.66,6.76,6.76,0,0,1,1.43,4.62v.55a1.71,1.71,0,0,1-.51,1.2,1.77,1.77,0,0,1-1.24.42h-6.7a4.4,4.4,0,0,0,.9,2.32,3.21,3.21,0,0,0,2.58,1,7.16,7.16,0,0,0,1.24-.12h0a8.93,8.93,0,0,0,1.3-.34l.1,0h0a1.52,1.52,0,0,1,.55-.12,1.21,1.21,0,0,1,.89.38h0a1.34,1.34,0,0,1,.35.92,1.29,1.29,0,0,1-.23.74h0a1.34,1.34,0,0,1-.62.48h0a10.61,10.61,0,0,1-1.83.46,12,12,0,0,1-1.94.17,6.31,6.31,0,0,1-4.88-1.87,7.62,7.62,0,0,1-1.7-5.28,7.94,7.94,0,0,1,1.61-5.25Zm1.63,4.13h5.28v-.49a3.55,3.55,0,0,0-.63-2.28,2.2,2.2,0,0,0-1.78-.74,2.42,2.42,0,0,0-2,.94,5,5,0,0,0-.83,2.57Zm23.63-5.63a1.53,1.53,0,0,1,1.11-.4,1.7,1.7,0,0,1,.52.08h0a1.32,1.32,0,0,1,.75.58,1.57,1.57,0,0,1,.22.82,1.64,1.64,0,0,1-.08.49h0l-3.51,10.8h0a2,2,0,0,1-.74,1,2.09,2.09,0,0,1-1.23.38h-.21a2.09,2.09,0,0,1-1.23-.38,2,2,0,0,1-.74-1h0l-3.46-10.54a2.44,2.44,0,0,1-.12-.74,1.65,1.65,0,0,1,.21-.84A1.26,1.26,0,0,1,465,393a1.76,1.76,0,0,1,.53-.08,1.5,1.5,0,0,1,1.13.4,2.69,2.69,0,0,1,.61,1.19l2.46,8.35,2.54-8.58a2,2,0,0,1,.52-1Zm4.93,1.5a5.72,5.72,0,0,1,4.55-1.93,5.33,5.33,0,0,1,4.15,1.66,6.76,6.76,0,0,1,1.43,4.62v.55a1.72,1.72,0,0,1-.51,1.2,1.77,1.77,0,0,1-1.24.42h-6.7a4.4,4.4,0,0,0,.91,2.32,3.21,3.21,0,0,0,2.58,1,7.11,7.11,0,0,0,1.24-.12h0a8.81,8.81,0,0,0,1.3-.34h0l.1,0h0a1.51,1.51,0,0,1,.56-.12,1.21,1.21,0,0,1,.9.38h0a1.34,1.34,0,0,1,.35.92,1.29,1.29,0,0,1-.23.74h0a1.34,1.34,0,0,1-.62.48h0a10.59,10.59,0,0,1-1.83.46,12,12,0,0,1-1.94.17,6.31,6.31,0,0,1-4.88-1.87,7.62,7.62,0,0,1-1.7-5.28,7.94,7.94,0,0,1,1.61-5.25Zm1.63,4.13h5.28v-.49a3.55,3.55,0,0,0-.63-2.28,2.19,2.19,0,0,0-1.78-.74,2.42,2.42,0,0,0-2,.94,4.94,4.94,0,0,0-.83,2.57ZM497,393.37a4.57,4.57,0,0,1,1.06.7,1.53,1.53,0,0,1,.46-.74,1.49,1.49,0,0,1,2.08,0h0a1.52,1.52,0,0,1,.45,1.07v10.91a6,6,0,0,1-1.67,4.41,6.21,6.21,0,0,1-4.49,1.59,11.35,11.35,0,0,1-2.43-.28,9.4,9.4,0,0,1-2.17-.76h0a1.33,1.33,0,0,1-.54-.5h0a1.37,1.37,0,0,1-.2-.71,1.35,1.35,0,0,1,.4-1h0a1.36,1.36,0,0,1,1-.4,1.29,1.29,0,0,1,.35,0h0a1.31,1.31,0,0,1,.32.14,8.08,8.08,0,0,0,1.4.59,6.22,6.22,0,0,0,1.83.28,3.07,3.07,0,0,0,2.33-.86,3.6,3.6,0,0,0,.8-2.53v-.06a4.32,4.32,0,0,1-1,.62h0a5.07,5.07,0,0,1-2.16.45,5.19,5.19,0,0,1-4.14-1.9h0a9.07,9.07,0,0,1,0-9.83,5,5,0,0,1,4-1.81,5.3,5.3,0,0,1,2.32.49Zm-3.82,9.49a2.32,2.32,0,0,0,2,1,2.44,2.44,0,0,0,2.1-1,5.4,5.4,0,0,0,.77-3.13,5.8,5.8,0,0,0-.78-3.25h0a2.42,2.42,0,0,0-2.11-1,2.29,2.29,0,0,0-2,1,7.38,7.38,0,0,0,0,6.44Zm28-9.29a5.17,5.17,0,0,1,2.73-.71,4.1,4.1,0,0,1,3.24,1.5,5.94,5.94,0,0,1,1.12,3.84v7.38a1.57,1.57,0,0,1-.46,1.1h0a1.57,1.57,0,0,1-2.67-1.11v-7.09a4.21,4.21,0,0,0-.42-2,1.78,1.78,0,0,0-1.68-.89,2.42,2.42,0,0,0-2,1.07,5.32,5.32,0,0,0-.78,3.08v5.85a1.57,1.57,0,0,1-.46,1.1h0a1.57,1.57,0,0,1-2.67-1.11V394.44a1.52,1.52,0,0,1,1.51-1.51,1.52,1.52,0,0,1,1.48,1.34h0l0,.18a4.83,4.83,0,0,1,1.07-.88Zm13.3,10.34a1.94,1.94,0,0,1,1.4-.52,1.82,1.82,0,0,1,1.36.51h0a2,2,0,0,1,.49,1.4,1.85,1.85,0,0,1-.54,1.35,1.92,1.92,0,0,1-1.37.51,1.88,1.88,0,0,1-1.35-.51h0a1.85,1.85,0,0,1-.54-1.34,1.9,1.9,0,0,1,.54-1.39Zm12.72.19h7.25a1.47,1.47,0,0,1,1,.43h0a1.46,1.46,0,0,1,.43,1,1.41,1.41,0,0,1-.43,1,1.47,1.47,0,0,1-1,.42h-8.82a1.67,1.67,0,0,1-1.23-.44h0a1.67,1.67,0,0,1-.44-1.23v-15a1.67,1.67,0,0,1,.44-1.23h0a1.68,1.68,0,0,1,1.23-.44h8.58a1.48,1.48,0,0,1,1,.42,1.42,1.42,0,0,1,.43,1,1.45,1.45,0,0,1-.43,1,1.47,1.47,0,0,1-1,.43h-7v4.8h5.58a1.43,1.43,0,1,1,0,2.87h-5.58v4.85Zm20.76.06a.47.47,0,0,0,.26.17h0a1.49,1.49,0,0,1,.77.53h0a1.47,1.47,0,0,1,.3.88,1.57,1.57,0,0,1,0,.18,1.45,1.45,0,0,1-.47.9h0a1.43,1.43,0,0,1-1,.36h-.18a5.42,5.42,0,0,1-1.12-.23h0a2.92,2.92,0,0,1-1-.57h0a2,2,0,0,1-.39-.48,3.58,3.58,0,0,1-1.1.82,5.42,5.42,0,0,1-2.4.5,4.57,4.57,0,0,1-3.27-1.14,4.25,4.25,0,0,1-1.2-3.17,3.9,3.9,0,0,1,1.48-3.34,7.66,7.66,0,0,1,4.54-1.15l1.5,0v-1a1.8,1.8,0,0,0-.61-1.54,2.73,2.73,0,0,0-1.65-.42,6.2,6.2,0,0,0-1.48.2,11.35,11.35,0,0,0-1.38.45,1.16,1.16,0,0,1-.52.08,1.36,1.36,0,0,1-1-.4A1.33,1.33,0,0,1,558,394a1.39,1.39,0,0,1,.66-.5h0a12.63,12.63,0,0,1,2-.47,13.86,13.86,0,0,1,2.1-.18,5.86,5.86,0,0,1,3.76,1.1h0a3.89,3.89,0,0,1,1.37,3.17v6.49a.9.9,0,0,0,.12.53Zm-4-.23a2.27,2.27,0,0,0,.68-1.75v-1.38l-1.22,0h0a4.88,4.88,0,0,0-2.24.42h0a1.59,1.59,0,0,0-.79,1.53,2.07,2.07,0,0,0,.45,1.38,1.47,1.47,0,0,0,1.13.51,3.15,3.15,0,0,0,2-.73Zm11.87.67a3.48,3.48,0,0,0,.45-.11h0a1.22,1.22,0,0,1,.33,0,1.32,1.32,0,0,1,1.31,1.31,1.25,1.25,0,0,1-.29.81h0a1.38,1.38,0,0,1-.74.46,6.63,6.63,0,0,1-.83.15,7.63,7.63,0,0,1-.84,0,4.33,4.33,0,0,1-2.81-.79,3.67,3.67,0,0,1-1.16-3v-7.79h-.57a1.3,1.3,0,0,1-.9-.37,1.23,1.23,0,0,1-.38-.88,1.26,1.26,0,0,1,.38-.9,1.28,1.28,0,0,1,.9-.38h.57V391a1.57,1.57,0,0,1,.46-1.1h0a1.57,1.57,0,0,1,2.67,1.11v2.1h1.92a1.29,1.29,0,0,1,.89.37h0a1.23,1.23,0,0,1,.38.88,1.27,1.27,0,0,1-.37.9h0a1.29,1.29,0,0,1-.9.38h-1.92v7.63a1.79,1.79,0,0,0,.28,1.13h0a.91.91,0,0,0,.74.28,2.61,2.61,0,0,0,.42,0Zm16.31-11.22a4.56,4.56,0,0,1,1.06.7,1.55,1.55,0,0,1,1.47-1.15,1.51,1.51,0,0,1,1.07.44h0a1.52,1.52,0,0,1,.45,1.07v10.91a6,6,0,0,1-1.67,4.41,6.21,6.21,0,0,1-4.49,1.59,11.35,11.35,0,0,1-2.43-.28,9.42,9.42,0,0,1-2.17-.76h0a1.33,1.33,0,0,1-.54-.5h0a1.37,1.37,0,0,1-.2-.71,1.35,1.35,0,0,1,.4-1h0a1.36,1.36,0,0,1,1-.4,1.29,1.29,0,0,1,.35,0h0a1.31,1.31,0,0,1,.32.14,8.06,8.06,0,0,0,1.4.59,6.22,6.22,0,0,0,1.83.28,3.07,3.07,0,0,0,2.33-.86,3.59,3.59,0,0,0,.8-2.53v-.06a4.34,4.34,0,0,1-1,.62h0a5.07,5.07,0,0,1-2.16.45,5.19,5.19,0,0,1-4.14-1.9h0a9.06,9.06,0,0,1,0-9.83,5,5,0,0,1,4-1.81,5.29,5.29,0,0,1,2.32.49Zm-3.81,9.49a2.32,2.32,0,0,0,2,1,2.44,2.44,0,0,0,2.1-1,5.4,5.4,0,0,0,.77-3.13,5.8,5.8,0,0,0-.78-3.25,2.42,2.42,0,0,0-2.11-1,2.29,2.29,0,0,0-2,1,7.38,7.38,0,0,0,0,6.44Zm16.68-9.9a1.38,1.38,0,0,1,.88.47h0a1.5,1.5,0,0,1,.29.47,1.52,1.52,0,0,1,.1.54h0v0h0a1.54,1.54,0,0,1-.47,1,1.52,1.52,0,0,1-1,.43h-.28a1.77,1.77,0,0,0-1.41.57,4,4,0,0,0-.66,2.61v6.4a1.57,1.57,0,0,1-.46,1.1h0a1.55,1.55,0,0,1-2.21,0h0a1.57,1.57,0,0,1-.46-1.1V394.42a1.48,1.48,0,0,1,.44-1h0a1.49,1.49,0,0,1,2.53.87,4,4,0,0,1,.4-.41,3.65,3.65,0,0,1,1.42-.77h0a2.46,2.46,0,0,1,1-.09Zm3.47,1.84a5.72,5.72,0,0,1,4.55-1.93,5.32,5.32,0,0,1,4.15,1.66,6.76,6.76,0,0,1,1.43,4.62v.55a1.71,1.71,0,0,1-.51,1.2,1.77,1.77,0,0,1-1.24.42h-6.7a4.41,4.41,0,0,0,.9,2.32,3.21,3.21,0,0,0,2.58,1,7.15,7.15,0,0,0,1.24-.12h0a8.85,8.85,0,0,0,1.3-.34h0l.09,0a1.51,1.51,0,0,1,.56-.12,1.21,1.21,0,0,1,.89.38h0a1.34,1.34,0,0,1,.35.92,1.28,1.28,0,0,1-.23.75h0a1.34,1.34,0,0,1-.62.48h0a10.6,10.6,0,0,1-1.83.46,12,12,0,0,1-1.94.17,6.31,6.31,0,0,1-4.88-1.87,7.62,7.62,0,0,1-1.7-5.28,7.93,7.93,0,0,1,1.61-5.25Zm1.63,4.13h5.28v-.49a3.55,3.55,0,0,0-.63-2.28,2.19,2.19,0,0,0-1.78-.74,2.42,2.42,0,0,0-2,.94,5,5,0,0,0-.83,2.57Zm11.41-4.13a5.72,5.72,0,0,1,4.55-1.93,5.32,5.32,0,0,1,4.15,1.66,6.76,6.76,0,0,1,1.43,4.62v.55a1.71,1.71,0,0,1-.51,1.2,1.77,1.77,0,0,1-1.24.42h-6.7a4.4,4.4,0,0,0,.91,2.32,3.21,3.21,0,0,0,2.58,1,7.15,7.15,0,0,0,1.24-.12h0a8.85,8.85,0,0,0,1.3-.34h0l.09,0a1.52,1.52,0,0,1,.56-.12,1.21,1.21,0,0,1,.89.38h0a1.34,1.34,0,0,1,.35.92,1.29,1.29,0,0,1-.23.74h0a1.34,1.34,0,0,1-.63.48h0a10.63,10.63,0,0,1-1.83.46,12,12,0,0,1-1.94.17,6.31,6.31,0,0,1-4.88-1.87,7.62,7.62,0,0,1-1.7-5.28,7.93,7.93,0,0,1,1.61-5.25Zm1.63,4.13h5.28v-.49a3.55,3.55,0,0,0-.63-2.28,2.19,2.19,0,0,0-1.78-.74,2.42,2.42,0,0,0-2,.94,4.94,4.94,0,0,0-.83,2.57ZM638,393.57a5.17,5.17,0,0,1,2.73-.72,4.1,4.1,0,0,1,3.24,1.5,5.94,5.94,0,0,1,1.12,3.84v7.38a1.57,1.57,0,0,1-.46,1.1h0a1.55,1.55,0,0,1-2.21,0h0a1.57,1.57,0,0,1-.46-1.1v-7.09a4.21,4.21,0,0,0-.42-2h0a1.79,1.79,0,0,0-1.68-.89,2.42,2.42,0,0,0-2,1.07,5.33,5.33,0,0,0-.78,3.08v5.85a1.57,1.57,0,0,1-.46,1.1h0a1.55,1.55,0,0,1-2.21,0h0a1.57,1.57,0,0,1-.46-1.1V394.44a1.52,1.52,0,0,1,.45-1.07h0a1.48,1.48,0,0,1,2.06-.05h0a1.48,1.48,0,0,1,.49.94h0l0,.18a4.82,4.82,0,0,1,1.07-.88Zm17,12.9a6.73,6.73,0,0,1-3.3.74,10.54,10.54,0,0,1-1.93-.22,11.88,11.88,0,0,1-1.92-.55h0a1.45,1.45,0,0,1-.66-.51h0a1.36,1.36,0,0,1-.24-.79,1.43,1.43,0,0,1,.41-1,1.36,1.36,0,0,1,1-.42,1.31,1.31,0,0,1,.35,0h0a1.28,1.28,0,0,1,.3.13h0a8.55,8.55,0,0,0,1.24.51h0a4.59,4.59,0,0,0,1.37.23,2.38,2.38,0,0,0,1.5-.43h0a1.36,1.36,0,0,0,.49-1.11,1.47,1.47,0,0,0-.64-1.25h0a4.32,4.32,0,0,0-1.42-.59h0a9.44,9.44,0,0,1-3-1.22h0a3.65,3.65,0,0,1-1.64-3.17,3.6,3.6,0,0,1,1.37-3,5.91,5.91,0,0,1,3.68-1,9.54,9.54,0,0,1,1.76.16,12.21,12.21,0,0,1,1.66.44h0a1.33,1.33,0,0,1,.67.5,1.41,1.41,0,0,1,.25.81,1.36,1.36,0,0,1-.4,1h0a1.35,1.35,0,0,1-1,.39l-.29,0h0a1.18,1.18,0,0,1-.25-.08h0a8.76,8.76,0,0,0-1.25-.42h0a5.53,5.53,0,0,0-1.34-.18,2.21,2.21,0,0,0-1.33.33,1.06,1.06,0,0,0-.38.9,1.2,1.2,0,0,0,.49,1,6.45,6.45,0,0,0,1.78.79h0A10.19,10.19,0,0,1,655.6,400a3.56,3.56,0,0,1,1.29,3,3.72,3.72,0,0,1-1.86,3.49Z" transform="translate(-185 -195.88)"/><path class="cls-2" d="M191.78,358.66a7.35,7.35,0,0,0-1-2.52,3,3,0,0,0-2-1.4h-.33l-.12,0a1,1,0,0,0-.49.59,3.56,3.56,0,0,0-.15,1.74,7.44,7.44,0,0,0,.36,1.52l2.2,0h1.6Z" transform="translate(-185 -195.88)"/><path class="cls-3" d="M282.7,282.65c-2.46-2.82-4.13,14.55-6.12,12.57-2.66-2.66,3-9.16-1.57-9.73-4.88-.6,3.35-5.85-3.6-4.58-38.61,7.08-38.35,34.22-20.57,44a3.92,3.92,0,0,1,1.44-3.29c1.41,1.56,5.94,7.49,8.84,7.66,3.33-6,15.63-4,19.66-10.13a13.07,13.07,0,0,1-1.41,4.24,27.51,27.51,0,0,0,8.19-6,30.11,30.11,0,0,0,3.9-5c1.54-2.49,2.56-2.73,2.68-5.21,6.4,4.77,5.83,16.26.14,21.58,0,0,7.45-1.6,11.85-1.45h.29c4.39-.15,11.85,1.45,11.85,1.45-5.69-5.33-6.26-16.82.14-21.58a16.31,16.31,0,0,0,2.68,7.58,30.08,30.08,0,0,0,3.9,5,27.5,27.5,0,0,0,8.19,6,13.06,13.06,0,0,1-1.41-4.24c4,6.1,13.48,8.94,16.81,15,2.9-.17,9.33-6.77,10.75-8.33a3.92,3.92,0,0,1,1.44,3.29c17.78-9.76,19-43.46-19.62-50.54-6.95-1.27,1.28,4-3.6,4.58-4.61.56,1.09,7.07-1.57,9.73-2,2-3.66-15.39-6.11-12.57-3.89-.53-9.3,2.76-12.8,6.73-.55-6.18,1.7-9.64,3.46-11.4-2.87-1.31-7.62.38-8.82,4.7-.23-4.74-2.21-7.31-5.25-10.52v-.34l-.16.17-.16-.17v.34c-3,3.2-5,5.78-5.25,10.52-1.21-4.32-6-6-8.82-4.7,1.75,1.76,4,5.22,3.46,11.4-3.5-4-8.91-7.25-12.8-6.73Z" transform="translate(-185 -195.88)"/><path class="cls-4" d="M366.89,303.66c2,11.28-7.75,25.58-19.2,25.58-8,0-20.5-14.36-24.75-18.2-4.7-4.24-6.58-9.29-5.06-14.73,3.39-12.14,9.05-16.79,16.14-16.63,11.94.27,30.79,12,32.88,24Z" transform="translate(-185 -195.88)"/><path class="cls-5" d="M340.72,311.38c-4.34.82-8.85-1.9-9.49-5.3-.37-2,14.56-6.4,15.53-3.72,1.18,3.25-1.69,8.2-6,9Z" transform="translate(-185 -195.88)"/><path class="cls-4" d="M226.42,272.63c1.67-7.31-18.72-11.49-19.74-32.5-1-20.4,10.47-30.16,21.49-39.48.86,1.89,1.75,2,2.64,1.69,1.42-.43.85-3.17,4-6.46,1,2.72,2,6.65,4.22,5.84.85-.31.47-1.86,1.61-3.41a12.42,12.42,0,0,0,4.13,3.51c4.6,2.59,7.9,9.76,8.32,10.37,5.48,8,10.21,10.11,22.68,5.56a88.77,88.77,0,0,1,30.36-5.33h.29a88.78,88.78,0,0,1,30.36,5.33c12.46,4.54,17.2,2.4,22.68-5.56.41-.6,3.72-7.77,8.32-10.37a12.43,12.43,0,0,0,4.13-3.51c1.14,1.56.75,3.1,1.61,3.41,2.21.81,3.2-3.12,4.22-5.84,3.16,3.29,2.59,6,4,6.46.88.26,1.77.2,2.64-1.69,11,9.32,22.47,19.08,21.49,39.48-1,21-21.41,25.18-19.74,32.5q.72,3.46,1.11,7.07c3.42,17.51,3,53.63,22,65.93-.69,1.49-4.64,3.07-5.59,2.79,2.49,4.34,1.28,10.43-1.48,13.28-.76-1.38-1.65-2.18-2-2.2-1.61,11.93-27.46,23-36.73,27.82-23.6,12.35-27.86,20.7-57.08,20.75h-.29c-33.44-.09-41.48-15.74-60.49-26.73-9.33-5.4-10.64-6.52-20.42-10.37-7.21-2.84-19.33-10.38-19-19-.33,0-1.2.55-2,1.92-2.76-2.84-4-8.94-1.48-13.28-1,.28-5.09-.91-5.78-2.4,9.85-6.38,25.88-46.13,28.3-58.51q.39-3.61,1.11-7.07Zm79.94-52.49h-.16c-37,0-69.34,25.17-74.52,62-3.26,16.66-8.19,27.68-15.21,42.52-6.36,13.48-2.2,33.48,13.23,39.55,9,3.55,11.28,6.68,19.88,11.65,17.55,10.15,27.14,25.44,56.71,25.49s35.51-12.3,53.06-22.44c18.74-10.83,44.23-17.67,30.65-46.44-7-14.83-5.87-33.65-9.13-50.32-5.18-36.87-37.5-62-74.52-62Z" transform="translate(-185 -195.88)"/><path class="cls-4" d="M245.68,303.66c-2,11.28,5.28,17.3,20.3,17.45,11.37.71,19.41-6.23,23.66-10.07,4.7-4.24,8.77-10.46,5.06-14.73-7.81-9-11.62-15.79-18.7-15.63-11.94.27-28.22,11-30.31,23Z" transform="translate(-185 -195.88)"/><path class="cls-5" d="M272.3,307.14c4.27,1.16,8.09,1.58,9-1,.5-1.49-14.07-6.71-15.21-4.75-1.38,2.38,2,4.56,6.25,5.72Z" transform="translate(-185 -195.88)"/><path class="cls-6" d="M247.72,256.63c2.42-5.11,14.49-8,24.61-7.85-1.32-2.83-4.41-5.37-6.38-6.72,6.11-3.24,19.14-.45,24.21,1.85,0-2.46-1.48-5.65-4.19-8.56,5-.54,12.12,1.14,20,6.24a.79.79,0,0,0,.69,0c7.85-5.11,14.93-6.78,20-6.24-2.7,2.91-4.2,6.1-4.19,8.56,5.07-2.31,18.1-5.09,24.21-1.85-2,1.36-5.06,3.89-6.38,6.72,10.12-.14,22.18,2.73,24.61,7.85a10.89,10.89,0,0,0-7.89,1.94c8.53,2.23,19.58,14.41,19,20a9.08,9.08,0,0,0-4.91-.31c7.7,7,1.27,36,12.56,54.13,4.37,7,4.56,14.56,2.22,19.33l0,.09-.12.23-.2.37c-1-2.76-3.71-6.8-8.07-7.32a15,15,0,0,1,1.22,12.32l0,.07,0,.05a16.7,16.7,0,0,0-4.12-3.61c2,14.27-10.82,16.86-23.78,19.67.07-.12.06-.17-.07-.14a4.85,4.85,0,0,1-3.7-.18,2.73,2.73,0,0,1,2.72-1.47c-2.12-2.17-4.93-2.36-5.58-1.9a3.75,3.75,0,0,1,2.34-1.84c-14.37-4.87-30.43,6.85-38.53-11.21-2.11-4.71-2.65-14.29,10.89-16.93,5.77-1.12,10.64-6.37,6.17-8-6.75-2.46-10.87-2.46-18.68-2.43h0c-7.81,0-11.93,0-18.68,2.43-4.48,1.63.4,6.87,6.17,8,13.54,2.64,12.33,12,10.89,16.93-3.26,11.16-16.55,10.76-26.49,3.92-8.58-5.9-13.16-13.66-16.16-18.07-2.85-4.19-10.19-6.21-14.38-1.88a5.18,5.18,0,0,1,5.24,2.84c-.68-.4-6.2.31-8.78,2.4.95-.3,4.91,1.33,5.17,2.12-5.06.14-5,7.3-2.7,9,8,5.06,16,13,24.2,19.09-10.09-5.26-20.5-8.27-30.19-12.08-3-1.19-9.69-10.58-8.59-18.28a16.71,16.71,0,0,0-4.12,3.61l0-.05,0-.07-.09-.28,0-.07-.08-.28,0-.08-.07-.27,0-.09-.07-.28,0-.08-.06-.28,0-.09-.05-.28,0-.09,0-.27,0-.1,0-.27v-.09l0-.29v-.09c0-.09,0-.19,0-.28v-.1c0-.09,0-.19,0-.28v-.1c0-.1,0-.19,0-.29V345c0-.1,0-.2,0-.31v-.07c0-.1,0-.2,0-.3v-.1c0-.1,0-.19,0-.29v-.09c0-.1,0-.2,0-.31v-.07c0-.11,0-.22,0-.32v-.05q0-.17,0-.34v0l0-.33v-.08l.05-.32v-.06l.07-.33v-.07l.07-.33,0-.07.09-.34v-.05l.1-.35v0l.12-.37v0l.13-.37v0l.14-.38h0l.16-.38h0v0l.16-.37,0,0,.17-.36h0v0l.19-.38h0l.21-.4c-4.36.52-7.11,4.56-8.06,7.32l-.2-.37-.12-.23,0-.09c-2.34-4.77-2.15-12.3,2.22-19.33,11.29-18.15,10.95-39.12,18.65-46.12a9.08,9.08,0,0,0-4.91.31c-.53-5.61,10.52-17.8,19-20a10.89,10.89,0,0,0-7.89-1.94Zm57.8,128.28c5.25-2.29,19.65-5.43,19.65-5.43l-6.56-8.11a28.4,28.4,0,0,1-12.32-4,28.39,28.39,0,0,1-12.32,4l11.56,13.54Zm.91-164.78s-.07,0-.07,0h-.22c0-4.45,0-3.36,0,0-37,0-69.28,25.19-74.45,62-2.75,14.09-7.25,23.55-12.23,35.75-1.9,4.42-5.52,12.19-11,18.16a3.37,3.37,0,0,0,3,.22c-1.68,1.63-2.86,6.06-2.23,8.29,1.37-1.44,3.88-1.47,4.21-1.49-.11,2.81,3.69,16,16.23,20.94,9,3.54,13.1,8,21.71,13,17.52,10.13,24.16,24.31,54.72,24.4h.29c30.55-.06,35.87-10.08,53.39-20.21,6.18-3.58,24.28-12.84,27.62-17.52,3.51-3.69,6.31-8.71,6.13-13.41a9.4,9.4,0,0,1,3.64,2.36c.62-2.23-.55-6.66-2.23-8.29a3.37,3.37,0,0,0,3-.22c-15.38-16.27-12.63-38.93-17.12-61.92-5.17-36.85-37.46-62-74.45-62Z" transform="translate(-185 -195.88)"/><path class="cls-4" d="M254.21,348.25l0,0,0,0a16.25,16.25,0,0,0-1.38,1,33.74,33.74,0,0,0-5,6.38c-.48.75.79.05,1.54.53a1.61,1.61,0,0,0,1.49.12c2.24,8.87,15.51,19,30,24.49a68.59,68.59,0,0,0,25.39,3.95h0c6.8.21,26.48-3,32-10h0a18.84,18.84,0,0,0,2.86.61c2.11.24,3.33-.44.33-2.26a21,21,0,0,0-5.08-2.36,33.7,33.7,0,0,0-8.12-.54h0c-4,.14-5.2,1-11.47-.87-5.83-1.7-8.8-6.74-9.35-13.35.38-14.42,20.34-11.94,20.34-20.74,0-7.17-15.31-8.16-21.16-8.21h-.29c-5.86,0-21.16,1-21.16,8.21,0,8.8,20,6.33,20.34,20.74-.42,9-5.68,12.41-12.52,12.43-14.51,0-24.74-9.06-34-18.63l-.66-.67a14.29,14.29,0,0,0,1.13-1.14c1.39-1.6,1.52-3-1.67-1.56a25,25,0,0,0-3.38,1.79Z" transform="translate(-185 -195.88)"/><path class="cls-5" d="M288.51,372.77a12.55,12.55,0,0,1-5.74-1,8.85,8.85,0,0,0,.27,1.36c1,4.23,2.27,5.19,3.09,5.28,1.07.11,1.55-2,1.91-3.94a9.32,9.32,0,0,1,.47-1.69Z" transform="translate(-185 -195.88)"/><path class="cls-3" d="M283.87,375.69c-.24-2.34,4-2.05,3.8.48a31.29,31.29,0,0,1,.84-3.4,14.37,14.37,0,0,1-5.74-1,8.85,8.85,0,0,0,.27,1.36,16.37,16.37,0,0,0,.83,2.57Z" transform="translate(-185 -195.88)"/><path class="cls-7" d="M257.88,354.8l-69-1.35c.16-.27,4.25,3.92,4.41,6.51,0,.27,0,.53,0,.77-.17,5.76-5,16.68.57,25.8,2.82,4.62,8.22,6.73,10.71,4.87,4.57-3.4,5.09-11.74-2.64-19.6l70.62-6.93q-5.91-2.66-14.65-10.07Z" transform="translate(-185 -195.88)"/><path class="cls-2" d="M192.91,375.25c20.24-1.56,39.85-7.83,60.14-8.47L268.14,364a33,33,0,0,1-6-5l-5.33-3.34L233.55,354c6.4,1,17.64,2.87,15.66,6.07-3.46,5.56-36.7,2.67-55,4l-1.24,11.17Z" transform="translate(-185 -195.88)"/><path class="cls-2" d="M251.5,367c1.48,5.58-.68,10-10.63,10.64s-14.81-1.6-16.19-8.73c-1.66-8.54,3.33-8.12,10.31-8.15,10.32,0,15.25,1.49,16.51,6.23Z" transform="translate(-185 -195.88)"/><path class="cls-2" d="M272.53,364.87l-70.62,6.93c7.45,8.16,6.34,20.8,2.65,21.74l38.55-13.48,15-4,19.12-2.44q3.07-4-4.73-8.73Z" transform="translate(-185 -195.88)"/><path d="M273.12,366.79l-66.23,7c4.2,7.2,3.61,14,1.82,16.68,15.88-7.56,34.62-13.8,48.64-16.45,6.06-1.15,12.76-.88,19.13-1.57a2.37,2.37,0,0,0,0-2.43h0c-.64-1.19-1.17-1.87-3.35-3.22ZM248.25,366a11.55,11.55,0,0,0-3.29-2.87,19.16,19.16,0,0,0-10-2.32c-2.53,0-5.69.48-7.47,2.41a6.8,6.8,0,0,0-1.54,5L248.25,366Zm-25.48,2.5a10,10,0,0,1,2.38-7.48c2.48-2.69,6.32-3.43,9.84-3.45a22.32,22.32,0,0,1,11.62,2.77,14.32,14.32,0,0,1,5.27,5.3l16.27-1.6h0q-1.42-.86-3-1.92c-6.14-4.22-4.12-5.07-11.34-5-2.61,0-5.41-.27-8.06-.48-18.38-1.4-40.29-4-51.5-1.56a12.86,12.86,0,0,1,.41,10.2c-2,5.84-.27,21.52,4.58,25.37,2.86,2.27,5.06.34,6.06-3.28a13.57,13.57,0,0,0,.42-5.23,24.11,24.11,0,0,0-4.9-9.49,1.29,1.29,0,0,1,.87-2.11l21.06-2.07Zm-31-9.8a7.35,7.35,0,0,0-1-2.52,3,3,0,0,0-2-1.4h-.32l-.13,0a1,1,0,0,0-.49.59,3.56,3.56,0,0,0-.15,1.74,7.44,7.44,0,0,0,.36,1.52l2.2,0Zm.17,2.58-1.79,0-3.08,0h-.83l-.33-.76a10.81,10.81,0,0,1-.86-3,6.08,6.08,0,0,1,.32-3,3.55,3.55,0,0,1,1.86-2,3.16,3.16,0,0,1,.45-.16h0l.13,0c11.3-3.2,38.8-.16,57.51,1.52,5,.45,8.91,1,12.58-.22h.47l.35.29q4.33,3.67,7.93,6.15a43.41,43.41,0,0,0,6.11,3.59h.07l.29.17,4.36,2-1.33.13a10.46,10.46,0,0,1,2.61,3h0a4.81,4.81,0,0,1-.46,5.6l-.29.39-.47.1c-7,.89-13.67.7-19.52,1.87-18.17,3.63-35.79,12.68-53.09,18.83l-.33.12h0c-2.11.67-4.66.34-7.35-1.34-5.73-3.6-9.28-18.06-6.3-28.48a27.26,27.26,0,0,0,1-4.63Z" transform="translate(-185 -195.88)"/><path class="cls-7" d="M245.7,369.73h0c-12.93,1.39-25.83,2.75-38.78,4.05a24.15,24.15,0,0,1,1.45,2.9q.31.74.55,1.46c9.48-1.6,20.21-3.23,29.68-4.84,11.54-2,22.75-3.66,34.38-4.73l2.32-.21a11.43,11.43,0,0,0-1.72-1.3l-.42-.27-27.42,2.94Z" transform="translate(-185 -195.88)"/><path class="cls-5" d="M306.43,390.55h-.29c-8.69.07-19-4.08-17.09-.76,1.44,2.45,7.16,5,17.09,5.37h.29c9.93-.39,15.66-2.93,17.09-5.37,2-3.32-8.41.83-17.09.76Z" transform="translate(-185 -195.88)"/><path class="cls-5" d="M306.19,331.74h.2c7.43-.08,13.47,1.43,11.48-.63-.77-.8-3-1.46-11.48-2h-.2c-8.52.53-10.7,1.19-11.48,2-2,2.06,4,.56,11.48.63Z" transform="translate(-185 -195.88)"/><path class="cls-5" d="M329.45,373.46c-1,3.94-2.21,4.86-3,4.94-1.07.11-1.55-2-1.91-3.94,0-.14-.05-.28-.08-.41a35,35,0,0,1,5-.6Z" transform="translate(-185 -195.88)"/><path class="cls-3" d="M329.45,373.46a22.8,22.8,0,0,1-1,2.91c-.44-1.3-2.75-1.24-3.51,0-.17-.6-.31-1.29-.43-2,0-.08-.05-.23-.09-.4a35.08,35.08,0,0,1,5-.6Z" transform="translate(-185 -195.88)"/></svg>